<svg xmlns="http://www.w3.org/2000/svg" xmlns:xlink="http://www.w3.org/1999/xlink">
    <symbol viewBox="0 0 512 512" id="password">
        <g id="OTP">
            <path d="M458.4741,112H265V62.41A31.3815,31.3815,0,0,0,233.5879,31H62.4077A31.3806,31.3806,0,0,0,31,62.41V449.59A31.4379,31.4379,0,0,0,62.4077,481h171.18A31.4388,31.4388,0,0,0,265,449.59V292H458.4771A22.5231,22.5231,0,0,0,481,269.4771V134.5259A22.5257,22.5257,0,0,0,458.4741,112ZM125.5,50.08h45a11.25,11.25,0,0,1,0,22.5h-45a11.25,11.25,0,0,1,0-22.5Zm44.9956,411.7651h-45a11.25,11.25,0,1,1,0-22.5h45a11.25,11.25,0,0,1,0,22.5ZM245.1982,420.25H50.7974V91.75H245.1982V112H125.3149A22.3149,22.3149,0,0,0,103,134.3149V269.6641A22.3357,22.3357,0,0,0,125.3359,292H166v36.1489a11.1221,11.1221,0,0,0,18.9868,7.8643L229,292h16.1982Zm-24.39-210.06a11.3086,11.3086,0,0,1,4.14,15.39,11.198,11.198,0,0,1-15.39,4.14L195.25,221.44V238a11.25,11.25,0,0,1-22.5,0V221.44L158.437,229.72a11.198,11.198,0,0,1-15.39-4.14,11.3164,11.3164,0,0,1,4.14-15.39L161.5,202l-14.313-8.28a11.2689,11.2689,0,0,1,11.25-19.5293L172.75,182.47V166a11.25,11.25,0,0,1,22.5,0v16.47l14.3086-8.2793a11.2689,11.2689,0,0,1,11.25,19.5293L206.5,202Zm108,0a11.3086,11.3086,0,0,1,4.14,15.39,11.198,11.198,0,0,1-15.39,4.14L303.25,221.44V238a11.25,11.25,0,0,1-22.5,0V221.44L266.437,229.72a11.198,11.198,0,0,1-15.39-4.14,11.3164,11.3164,0,0,1,4.14-15.39L269.5,202l-14.313-8.28a11.2689,11.2689,0,0,1,11.25-19.5293L280.75,182.47V166a11.25,11.25,0,0,1,22.5,0v16.47l14.3086-8.2793a11.2689,11.2689,0,0,1,11.25,19.5293L314.5,202Zm108,0a11.3086,11.3086,0,0,1,4.14,15.39,11.198,11.198,0,0,1-15.39,4.14L411.25,221.44V238a11.25,11.25,0,0,1-22.5,0V221.44L374.437,229.72a11.198,11.198,0,0,1-15.39-4.14,11.3164,11.3164,0,0,1,4.14-15.39L377.5,202l-14.313-8.28a11.2689,11.2689,0,0,1,11.25-19.5293L388.75,182.47V166a11.25,11.25,0,0,1,22.5,0v16.47l14.3086-8.2793a11.2689,11.2689,0,0,1,11.25,19.5293L422.5,202Z"/>
        </g>
    </symbol>
    <symbol viewBox="0 0 512 512" id="cyber-crime">
        <g id="Computer_worm">
            <path d="M115.7986,418.4517h96.8686v47.7026H162.2664a9.8965,9.8965,0,0,0,0,19.793H349.4646a9.8965,9.8965,0,0,0,0-19.793H299.0681V418.4517h96.8643a39.8462,39.8462,0,0,0,39.2651-33.3238H76.5334A39.8532,39.8532,0,0,0,115.7986,418.4517Z"/>
            <path d="M454.1335,26.0527H382.1423a72.0844,72.0844,0,0,0-72.0088,72v41.39h54v-41.39a18.0254,18.0254,0,0,1,18.0088-18h71.9912a27,27,0,0,0,0-54Z"/>
            <path d="M395.9324,159.2422H189.9783a91.2931,91.2931,0,0,1,4.6933,28.791v70.1982H219.87a46.8018,46.8018,0,0,1,0,93.6036h-27a91.91,91.91,0,0,1-91.8018-91.8018V189.835H77.0564a39.91,39.91,0,0,0-1.1909,9.34v166.16h360V323.0332a40.5,40.5,0,1,1,0-81V199.1753A39.9325,39.9325,0,0,0,395.9324,159.2422Zm-77.0669,105.291a31.5,31.5,0,1,1,31.5-31.5A31.4993,31.4993,0,0,1,318.8655,264.5332Z"/>
            <path d="M120.8665,188.0332v72a72.0825,72.0825,0,0,0,72,72h27a27,27,0,1,0,0-54h-27a18.0234,18.0234,0,0,1-18-18v-72a72.0844,72.0844,0,0,0-72.0088-72H57.8665a27,27,0,0,0,0,54h44.9912A18.0254,18.0254,0,0,1,120.8665,188.0332Z"/>
        </g>
    </symbol>
</svg>
